<?xml version="1.0" encoding="UTF-8" standalone="no"?><!DOCTYPE svg PUBLIC "-//W3C//DTD SVG 1.1//EN" "http://www.w3.org/Graphics/SVG/1.1/DTD/svg11.dtd"><svg width="100%" height="100%" viewBox="0 0 1601 901" version="1.1" xmlns="http://www.w3.org/2000/svg" xmlns:xlink="http://www.w3.org/1999/xlink" xml:space="preserve" xmlns:serif="http://www.serif.com/" style="fill-rule:evenodd;clip-rule:evenodd;stroke-linecap:square;stroke-miterlimit:1.5;"><rect id="Artboard3" x="0.21" y="0.394" width="1600" height="900" style="fill:none;"/><path d="M118,86.06l121.916,145.024l9.132,123.668l69.085,72.887l-7.133,86.495" style="fill:none;stroke:#fff;stroke-width:2px;"/><path d="M572.798,257.115l103.485,66.447l12.776,45.981l57.492,37.412l16.609,141.607l40.883,0" style="fill:none;stroke:#fff;stroke-width:2px;"/><path d="M752.43,457.079l51.613,13.617l72.823,-33.44l31.94,89.432l118.816,11.498" style="fill:none;stroke:#fff;stroke-width:2px;"/><path d="M826.026,460.601l38.346,68.642l-10.503,95.82l61.325,62.602" style="fill:none;stroke:#fff;stroke-width:2px;"/><path d="M492.268,498.581l30.662,30.817l0,62.447l51.104,33.218" style="fill:none;stroke:#fff;stroke-width:2px;"/><path d="M544.649,602.782l40.884,6.853l17.886,26.19" style="fill:none;stroke:#fff;stroke-width:2px;"/><path d="M522.93,538.186l10.221,30.75l58.77,16.521" style="fill:none;stroke:#fff;stroke-width:2px;"/><path d="M915.194,261.755l60.047,22.997l28.107,61.324l42.161,1.278" style="fill:none;stroke:#fff;stroke-width:2px;"/><path d="M1018.14,347.354l12.038,32.731l15.331,30.024" style="fill:none;stroke:#fff;stroke-width:2px;"/><path d="M1124.44,204.733l88.154,59.895l67.713,0" style="fill:none;stroke:#fff;stroke-width:2px;"/><path d="M1168.52,234.681l33.856,46.708l44.716,30.662l33.218,66.436" style="fill:none;stroke:#fff;stroke-width:2px;"/><path d="M274.138,568.936l110.193,90.662l28.746,75.059l109.853,52.701" style="fill:none;stroke:#fff;stroke-width:2px;"/><path d="M398.534,696.684l83.214,9.227l41.182,39.925l134.487,41.522" style="fill:none;stroke:#fff;stroke-width:2px;"/><path d="M242.845,270.754l64.805,29.343l10.483,66.795" style="fill:none;stroke:#fff;stroke-width:2px;"/><path d="M1196.23,503.728l127.568,103.125l27.162,88.627l40.393,-7.364l3.059,109.386" style="fill:none;stroke:#fff;stroke-width:2px;"/><path d="M1322.72,606.142l37.004,30.406l67.363,-58.596l-5.808,112.89l-1.809,72.026l20.23,5.138" style="fill:none;stroke:#fff;stroke-width:2px;"/><path d="M1250.09,546.69l29.109,47.981l14.986,48.898l43.796,53.44" style="fill:none;stroke:#fff;stroke-width:2px;"/></svg>